<svg width="34" height="27" viewBox="0 0 34 27" fill="none" xmlns="http://www.w3.org/2000/svg">
<path d="M2.75 12.043H17V14.4207H2.75V12.043Z" fill="#2A2A2A"/>
<path d="M0.375 6.09766H12.25V8.4754H0.375V6.09766Z" fill="#2A2A2A"/>
<path d="M33.529 12.7625L29.9665 4.4404C29.8751 4.2265 29.7229 4.04419 29.5289 3.91611C29.3349 3.78802 29.1076 3.71981 28.8752 3.71994H25.3127V1.34219C25.3127 1.02688 25.1876 0.724491 24.9649 0.501534C24.7422 0.278577 24.4402 0.15332 24.1252 0.15332H5.12521V2.53107H22.9377V17.4586C22.3966 17.7731 21.9231 18.1918 21.5444 18.6905C21.1657 19.1892 20.8894 19.758 20.7313 20.3642H13.2691C12.9801 19.2435 12.2927 18.2668 11.3358 17.6172C10.379 16.9675 9.21831 16.6896 8.0714 16.8355C6.9245 16.9813 5.87009 17.5409 5.10583 18.4094C4.34157 19.2779 3.91992 20.3956 3.91992 21.553C3.91992 22.7105 4.34157 23.8282 5.10583 24.6967C5.87009 25.5652 6.9245 26.1248 8.0714 26.2706C9.21831 26.4165 10.379 26.1385 11.3358 25.4889C12.2927 24.8393 12.9801 23.8626 13.2691 22.7419H20.7313C20.9897 23.7623 21.5804 24.6672 22.4102 25.3137C23.24 25.9601 24.2613 26.3111 25.3127 26.3111C26.3641 26.3111 27.3855 25.9601 28.2152 25.3137C29.045 24.6672 29.6358 23.7623 29.8941 22.7419H32.4377C32.7527 22.7419 33.0547 22.6167 33.2774 22.3937C33.5001 22.1707 33.6252 21.8684 33.6252 21.553V13.2309C33.6253 13.0699 33.5925 12.9105 33.529 12.7625ZM8.68771 23.9308C8.21798 23.9308 7.7588 23.7913 7.36824 23.5301C6.97767 23.2688 6.67326 22.8974 6.4935 22.463C6.31374 22.0285 6.26671 21.5504 6.35835 21.0892C6.44999 20.6279 6.67619 20.2043 7.00834 19.8717C7.34049 19.5392 7.76367 19.3127 8.22437 19.221C8.68508 19.1292 9.16261 19.1763 9.59659 19.3563C10.0306 19.5363 10.4015 19.841 10.6625 20.232C10.9234 20.6231 11.0627 21.0828 11.0627 21.553C11.0621 22.1835 10.8117 22.7879 10.3664 23.2337C9.92113 23.6794 9.31741 23.9302 8.68771 23.9308ZM25.3127 6.09769H28.0915L30.6375 12.0421H25.3127V6.09769ZM25.3127 23.9308C24.843 23.9308 24.3838 23.7913 23.9932 23.5301C23.6027 23.2688 23.2983 22.8974 23.1185 22.463C22.9387 22.0285 22.8917 21.5504 22.9833 21.0892C23.075 20.6279 23.3012 20.2043 23.6333 19.8717C23.9655 19.5392 24.3887 19.3127 24.8494 19.221C25.3101 19.1292 25.7876 19.1763 26.2216 19.3563C26.6556 19.5363 27.0265 19.841 27.2875 20.232C27.5484 20.6231 27.6877 21.0828 27.6877 21.553C27.6871 22.1835 27.4367 22.7879 26.9914 23.2337C26.5461 23.6794 25.9424 23.9302 25.3127 23.9308ZM31.2502 20.3642H29.8941C29.6325 19.3458 29.0408 18.4432 28.2117 17.7977C27.3826 17.1522 26.363 16.8005 25.3127 16.7976V14.4198H31.2502V20.3642Z" fill="#2A2A2A"/>
</svg>
