<svg width="19" height="19" viewBox="0 0 19 19" fill="none" xmlns="http://www.w3.org/2000/svg">
<path d="M16.5469 5.05019V7.35249C15.7248 7.38948 14.9464 7.73334 14.3654 8.31619L8.81087 13.8695C8.34052 14.341 8.00587 14.931 7.84487 15.5773L7.60222 16.549H3.32422C2.56172 16.549 1.83045 16.2461 1.29129 15.707C0.75212 15.1678 0.449219 14.4365 0.449219 13.674V5.04904H16.5469V5.05019ZM13.6719 0.450195C14.4344 0.450195 15.1657 0.753096 15.7048 1.29226C16.244 1.83143 16.5469 2.5627 16.5469 3.32519V3.90019H0.449219V3.32519C0.449219 2.5627 0.75212 1.83143 1.29129 1.29226C1.83045 0.753096 2.56172 0.450195 3.32422 0.450195H13.6731H13.6719ZM9.62392 14.6826L15.1784 9.12809C15.5819 8.72488 16.1291 8.49849 16.6995 8.4987C17.27 8.49892 17.817 8.72573 18.2202 9.12924C18.6234 9.53276 18.8498 10.0799 18.8496 10.6504C18.8493 11.2208 18.6225 11.7678 18.219 12.171L12.6657 17.7232C12.3421 18.0469 11.9367 18.2767 11.4927 18.3879L9.76997 18.8191C9.59863 18.8617 9.41921 18.8592 9.24913 18.8119C9.07906 18.7646 8.92411 18.6741 8.79934 18.5492C8.67457 18.4243 8.58422 18.2693 8.53707 18.0991C8.48992 17.929 8.48758 17.7496 8.53027 17.5783L8.96037 15.8556C9.07192 15.4117 9.30077 15.0057 9.62507 14.6826H9.62392Z" fill="#2A2A2A"/>
</svg>
