<svg width="33" height="23" viewBox="0 0 33 23" fill="none" xmlns="http://www.w3.org/2000/svg">
<path d="M33 21.125C33 21.6773 32.5523 22.125 32 22.125H5.09375C4.55872 22.125 4.125 21.6913 4.125 21.1562C4.125 20.6212 4.55872 20.1875 5.09375 20.1875H29.9375C30.4898 20.1875 30.9375 19.7398 30.9375 19.1875V7.625C30.9375 7.07272 31.3852 6.625 31.9375 6.625H32C32.5523 6.625 33 7.07272 33 7.625V21.125Z" fill="#2A2A2A"/>
<path d="M25.8125 2.75C26.3648 2.75 26.8125 3.19772 26.8125 3.75V15.3125C26.8125 15.8648 26.3648 16.3125 25.8125 16.3125H3.0625C2.51021 16.3125 2.0625 15.8648 2.0625 15.3125V3.75C2.0625 3.19772 2.51022 2.75 3.0625 2.75H25.8125ZM28.875 1.8125C28.875 1.26022 28.4273 0.8125 27.875 0.8125H1C0.447715 0.8125 0 1.26022 0 1.8125V17.25C0 17.8023 0.447715 18.25 1 18.25H27.875C28.4273 18.25 28.875 17.8023 28.875 17.25V1.8125Z" fill="#2A2A2A"/>
<path d="M6.1875 6.625H4.125V12.4375H6.1875V14.375H14.4375C13.07 14.375 11.7585 13.8647 10.7915 12.9563C9.8245 12.0479 9.28125 10.8159 9.28125 9.53125C9.28125 8.24661 9.8245 7.01458 10.7915 6.1062C11.7585 5.19782 13.07 4.6875 14.4375 4.6875H6.1875V6.625Z" fill="#2A2A2A"/>
<path d="M22.6875 6.625V4.6875H14.4375C15.805 4.6875 17.1165 5.19782 18.0835 6.1062C19.0505 7.01458 19.5938 8.24661 19.5938 9.53125C19.5938 10.8159 19.0505 12.0479 18.0835 12.9563C17.1165 13.8647 15.805 14.375 14.4375 14.375H22.6875V12.4375H24.75V6.625H22.6875Z" fill="#2A2A2A"/>
</svg>
