<svg width="35" height="27" viewBox="0 0 35 27" fill="none" xmlns="http://www.w3.org/2000/svg">
<path d="M0 4.99431C0 3.83265 0.460936 2.71856 1.28141 1.89714C2.10188 1.07573 3.21468 0.614258 4.375 0.614258H30.625C31.7853 0.614258 32.8981 1.07573 33.7186 1.89714C34.5391 2.71856 35 3.83265 35 4.99431V22.5145C35 23.6762 34.5391 24.7903 33.7186 25.6117C32.8981 26.4331 31.7853 26.8946 30.625 26.8946H4.375C3.21468 26.8946 2.10188 26.4331 1.28141 25.6117C0.460936 24.7903 0 23.6762 0 22.5145V4.99431ZM4.375 2.80428C3.79484 2.80428 3.23844 3.03502 2.8282 3.44573C2.41797 3.85644 2.1875 4.41348 2.1875 4.99431V7.18433H32.8125V4.99431C32.8125 4.41348 32.582 3.85644 32.1718 3.44573C31.7616 3.03502 31.2052 2.80428 30.625 2.80428H4.375ZM32.8125 11.5644H2.1875V22.5145C2.1875 23.0953 2.41797 23.6524 2.8282 24.0631C3.23844 24.4738 3.79484 24.7045 4.375 24.7045H30.625C31.2052 24.7045 31.7616 24.4738 32.1718 24.0631C32.582 23.6524 32.8125 23.0953 32.8125 22.5145V11.5644Z" fill="#2A2A2A"/>
<path d="M4.375 18.1344C4.375 17.5535 4.60547 16.9965 5.0157 16.5858C5.42594 16.1751 5.98234 15.9443 6.5625 15.9443H8.75C9.33016 15.9443 9.88656 16.1751 10.2968 16.5858C10.707 16.9965 10.9375 17.5535 10.9375 18.1344V20.3244C10.9375 20.9052 10.707 21.4623 10.2968 21.873C9.88656 22.2837 9.33016 22.5144 8.75 22.5144H6.5625C5.98234 22.5144 5.42594 22.2837 5.0157 21.873C4.60547 21.4623 4.375 20.9052 4.375 20.3244V18.1344Z" fill="#2A2A2A"/>
</svg>
