<svg width="287" height="216" viewBox="0 0 287 216" fill="none" xmlns="http://www.w3.org/2000/svg">
<path fill-rule="evenodd" clip-rule="evenodd" d="M143.193 108.313C168.297 108.313 187.822 82.2757 187.822 55.3227V46.8787C187.822 19.9267 168.297 0.802734 143.193 0.802734C118.088 0.802734 98.563 19.9257 98.563 46.8787V55.3227C98.563 82.2757 118.088 108.313 143.193 108.313ZM53.779 117.03C60.957 117.03 80.6 107.717 80.6 88.3927V74.0737C80.6 54.7487 66.43 45.4357 53.779 45.4357C41.548 45.4357 26.959 54.7487 26.959 74.0737V88.3927C26.959 107.717 46.983 117.03 53.779 117.03ZM214.479 152.834C214.465 152.694 214.423 152.561 214.409 152.422C214.199 150.736 213.877 149.087 213.43 147.472C213.43 147.457 213.43 147.444 213.416 147.43C212.479 143.997 210.898 140.69 208.536 137.432V137.418C204.662 132.056 198.818 126.587 189.323 121.254C184.303 118.435 182.093 117.143 178.99 117.143C174.054 117.143 169.747 120.981 162.491 127.644H162.476L155.876 133.712C155.638 133.937 148.522 143.99 143.194 143.99C137.866 143.99 130.749 133.936 130.511 133.712L123.911 127.644H123.897C116.641 120.981 112.334 117.143 107.398 117.143C104.294 117.143 101.524 118.435 97.065 121.254C87.859 127.065 81.724 132.049 77.866 137.403L77.851 137.41C77.837 137.424 77.837 137.446 77.824 137.458C75.488 140.689 73.922 143.975 72.986 147.387C72.973 147.415 72.957 147.45 72.946 147.484C72.511 149.087 72.189 150.714 71.98 152.385C71.966 152.54 71.924 152.686 71.909 152.84C71.713 154.616 71.602 156.427 71.602 158.307C71.602 158.516 71.598 197.502 71.602 197.684C71.602 210.408 76.398 215.582 89.5 215.582H196.89C210.105 215.582 214.788 210.687 214.788 197.684C214.792 197.502 214.787 158.516 214.787 158.307C214.786 156.428 214.674 154.617 214.479 152.834ZM232.764 117.03C239.941 117.03 259.586 107.717 259.586 88.3927V74.0737C259.586 54.7487 245.416 45.4357 232.764 45.4357C220.532 45.4357 205.943 54.7487 205.943 74.0737V88.3927C205.943 107.717 225.967 117.03 232.764 117.03ZM20.366 136.411C3.71098 145.892 0.00597808 161.008 0.00597808 170.838C0.00597808 170.991 -0.00802192 188.597 0.00597808 188.736C0.00597808 201.726 4.36898 206.635 17.904 206.635H53.701C53.701 206.635 53.701 168.601 53.701 152.939L44.752 143.99C35.284 135.642 27.302 132.468 20.366 136.411ZM53.701 152.939C53.898 153.109 53.701 148.689 53.701 152.939V152.939ZM286.381 170.838C286.381 161.007 282.675 145.891 266.021 136.411C259.085 132.468 251.103 135.642 241.635 143.991L232.686 152.94C232.686 168.601 232.686 206.636 232.686 206.636H268.483C282.018 206.636 286.381 201.727 286.381 188.737C286.395 188.597 286.381 170.992 286.381 170.838ZM232.685 152.939C232.685 148.689 232.489 153.109 232.685 152.939V152.939Z" fill="black"/>
</svg>
