<?xml version="1.0" encoding="iso-8859-1"?>
<!-- Generator: Adobe Illustrator 19.1.0, SVG Export Plug-In . SVG Version: 6.00 Build 0)  -->
<svg version="1.1" id="Capa_1" xmlns="http://www.w3.org/2000/svg" xmlns:xlink="http://www.w3.org/1999/xlink" x="0px" y="0px"
	 viewBox="0 0 289.135 289.135" style="enable-background:new 0 0 289.135 289.135;" xml:space="preserve">
<g>
	<g>
		<path d="M144.567,85.111c-47.082,0-85.714,38.632-85.714,85.714s38.632,85.714,85.714,85.714
			c47.083,0,85.714-38.632,85.714-85.714C230.282,123.139,191.65,85.111,144.567,85.111z M144.567,243.863
			c-40.443,0-73.642-33.199-73.642-73.642s33.199-73.642,73.642-73.642s73.642,33.199,73.642,73.642S185.01,243.863,144.567,243.863
			z"/>
		<path d="M236.922,95.372l24.145-31.388l-41.65-31.992l-24.145,30.785c-7.847-3.622-15.694-6.64-24.145-8.451V41.65h18.712V0
			h-89.94v41.65h18.712v12.676c-53.119,12.072-92.958,59.759-92.958,115.895c0,65.795,53.722,118.914,118.914,118.914
			s118.913-53.722,118.913-118.914C263.481,142.455,253.823,115.895,236.922,95.372z M221.227,48.893l22.938,17.505l-15.091,19.919
			c-3.622-3.622-7.243-6.64-10.865-9.658l0,0c-3.622-3.018-7.847-5.433-12.072-7.847L221.227,48.893z M111.972,29.577V12.072h65.795
			v17.505h-6.64h-52.515H111.972z M130.081,52.515V41.65h28.37v10.865c-0.604,0-0.604,0-1.207,0c-0.604,0-1.811,0-2.414,0
			c-3.622-0.604-7.244-0.604-10.865-0.604c-3.622,0-7.244,0-10.865,0.604c-0.604,0-1.811,0-2.414,0
			C131.288,52.515,130.684,52.515,130.081,52.515z M144.567,277.666c-59.155,0-106.841-48.29-106.841-106.841
			c0-51.912,36.821-94.769,85.714-105.03l0,0c1.811-0.604,4.225-0.604,6.036-1.207c1.811,0,3.622-0.604,5.433-0.604
			c2.414,0,5.433-0.604,7.847-0.604c1.207,0,3.018,0,4.225,0c2.414,0,5.433,0,7.847,0.604c1.811,0,3.622,0.604,5.433,0.604
			c1.811,0,4.225,0.604,6.036,1.207l0,0c48.893,10.262,85.714,53.119,85.714,105.03
			C251.408,229.376,203.722,277.666,144.567,277.666z"/>
		<rect x="138.531" y="115.292" width="12.072" height="55.533"/>
	</g>
</g>
<g>
</g>
<g>
</g>
<g>
</g>
<g>
</g>
<g>
</g>
<g>
</g>
<g>
</g>
<g>
</g>
<g>
</g>
<g>
</g>
<g>
</g>
<g>
</g>
<g>
</g>
<g>
</g>
<g>
</g>
</svg>
