<svg width="16" height="16" viewBox="0 0 16 16" fill="none" xmlns="http://www.w3.org/2000/svg">
<path d="M0.896119 2.14185C2.74779 4.51602 6.16695 8.91602 6.16695 8.91602V14.416C6.16695 14.9202 6.57945 15.3327 7.08362 15.3327H8.91695C9.42112 15.3327 9.83362 14.9202 9.83362 14.416V8.91602C9.83362 8.91602 13.2436 4.51602 15.0953 2.14185C15.2003 2.00652 15.2653 1.84442 15.2827 1.67399C15.3002 1.50356 15.2694 1.33166 15.1939 1.17786C15.1185 1.02405 15.0013 0.894534 14.8559 0.804044C14.7104 0.713554 14.5424 0.66573 14.3711 0.666017H1.62029C0.859452 0.666017 0.428619 1.53685 0.896119 2.14185Z" fill="#2A2A2A"/>
</svg>
