<svg xmlns="http://www.w3.org/2000/svg" viewBox="0 0 525.9 109.52">
  <path fill="#fff" d="m132.33 101.16 8.58-10.58a22.87 22.87 0 0 0 15.84 6.51 23.31 23.31 0 0 0 9.66-1.74c2.53-1.15 3.79-2.75 3.79-4.77q0-5.16-8.41-5.15A62.18 62.18 0 0 0 155 86a62.18 62.18 0 0 1-6.78.54q-14 0-14-10a8.73 8.73 0 0 1 2.34-5.64 14.35 14.35 0 0 1 5.44-4.14 20.58 20.58 0 0 1-9.93-18.28A19.81 19.81 0 0 1 138.9 33a24.33 24.33 0 0 1 16.82-6.1 26.6 26.6 0 0 1 13.07 2.93l5.32-6.19 9.39 8.52-6.5 4.76a21.41 21.41 0 0 1 3.36 12q0 9.93-6.05 15.87a20.89 20.89 0 0 1-15.27 5.94 37.24 37.24 0 0 1-3.9-.27l-2.14-.28a14.75 14.75 0 0 0-2.9 1.17c-1.68.77-2.53 1.58-2.53 2.41 0 1.45 1.25 2.17 3.75 2.17a32.58 32.58 0 0 0 5.64-.81 34 34 0 0 1 6.78-.82q19.81 0 19.81 15.9 0 8.79-7.92 13.81t-19.1 5a40.07 40.07 0 0 1-24.15-7.87m13.52-52.61a11.8 11.8 0 0 0 2.85 8.28 9.87 9.87 0 0 0 7.67 3.12 9.29 9.29 0 0 0 7.44-3c1.73-2 2.6-4.81 2.6-8.36a10.59 10.59 0 0 0-2.79-7.43 9.39 9.39 0 0 0-7.25-3 10 10 0 0 0-10.52 10.39m42.75 8.52q0-13.29 7.68-21.65t20.26-8.35q13.24 0 20.57 8t7.32 22q0 13.89-7.46 22.08t-20.43 8.19q-13.23 0-20.59-8.27t-7.35-22m14.11 0q0 19.2 13.83 19.21a11.92 11.92 0 0 0 10.07-5q3.71-5 3.71-14.22 0-18.93-13.78-18.94a12 12 0 0 0-10.09 5q-3.74 5-3.74 13.94m54.9-50.56 13.57-3.25v65.32q0 10.74 6.4 12.81-3.15 6-10.74 6-9.22 0-9.23-12.8Zm67.82 79.76v-3.53a13.73 13.73 0 0 1-5.69 3.23 25.42 25.42 0 0 1-8.31 1.38q-12.15 0-19.12-7.7t-7-21.49q0-13.77 8-22.43a26.17 26.17 0 0 1 20.05-8.65 26.53 26.53 0 0 1 12 2.71V6.48l13.57-3.25v83Zm0-44.22a14.34 14.34 0 0 0-9.06-3.47q-8.13 0-12.53 5t-4.4 14.24q0 18.14 17.47 18.13a13.15 13.15 0 0 0 4.81-1.17 8.78 8.78 0 0 0 3.71-2.36ZM385 16.74a23.81 23.81 0 0 0-6.84-1.47 8.16 8.16 0 0 0-6.53 3.31 12.51 12.51 0 0 0-2.69 8.14q0 .71.06 1.41h12v11.18h-11.79v46.93h-13.56V39.31h-8.47V28.13h8.52q.44-10.68 6.32-17.25a19.5 19.5 0 0 1 15.22-6.57A41.74 41.74 0 0 1 389 6.43Zm12.32 69.5v-47h-7.44V28.13H411v58.11Zm7-80.62a7.6 7.6 0 0 1 5.56 2.3 7.6 7.6 0 0 1 2.3 5.56 7.59 7.59 0 0 1-2.3 5.56 7.86 7.86 0 0 1-11.13 0 7.59 7.59 0 0 1-2.3-5.56 7.85 7.85 0 0 1 7.87-7.86m18.93 76.88 4.83-10.8a21.49 21.49 0 0 0 13.73 4.83q7.92 0 7.92-5.64a6.93 6.93 0 0 0-2.39-5.43q-2.38-2.11-9.28-5Q423 54.23 423 43a13.74 13.74 0 0 1 5.75-11.75q5.76-4.2 14.71-4.2a36.83 36.83 0 0 1 17 4.07l-3.9 10.52q-4.46-3.8-12.37-3.8-7.11 0-7.11 5.65a5.07 5.07 0 0 0 2.33 4c1.56 1.19 4.89 2.8 10 4.8s8.77 4.44 11 7.3A16.28 16.28 0 0 1 463.83 70a15.24 15.24 0 0 1-6 12.73q-6 4.64-16.31 4.63a36.89 36.89 0 0 1-9.3-.94 46.28 46.28 0 0 1-9-3.88m89.06 3.7V50.43a11.47 11.47 0 0 0-3.36-8.63 12.1 12.1 0 0 0-8.79-3.25 14.26 14.26 0 0 0-6.78 1.82 12.38 12.38 0 0 0-4.88 4.15v41.72h-13.79V6.48l13.79-3.25v28.59q5.25-4.77 14.48-4.77 10.91 0 16.93 6.05t6 17.33v35.81Z"/>
  <path fill="#faa43f" d="M96.3 37.22 70.6 11.51a39.33 39.33 0 0 0-55.2-.4l.43.4 20.81 20.81a31.74 31.74 0 0 1 0 44.88L15.83 98l-.43.4a39.32 39.32 0 0 0 55.2-.4l25.7-25.7a24.81 24.81 0 0 0 0-35.09M78.79 62a7.7 7.7 0 1 1 0-10.89 7.7 7.7 0 0 1 0 10.89"/>
  <path fill="#faa43f" d="M2.26 51.13a7.7 7.7 0 1 0 10.89 0 7.7 7.7 0 0 0-10.89 0"/>
</svg>